<svg xmlns="http://www.w3.org/2000/svg" viewBox="0 0 120 24" width="120" height="24" fill="none"><path fill="#fff" d="M27.999 23.987 26.715 0h-7.799L9.521 23.987h6.577L17.1 20.9h4.29v3.086H28Zm-9.24-8.176 1.723-5.567c.502-1.496.877-3.023 1.316-4.518h.062a218.333 218.333 0 0 0-.25 4.518l-.157 5.567H18.76ZM45.051 23.987l-3.195-9.99c2.694-1.017 4.197-3.372 4.604-6.012C47.431 1.655 43.673 0 38.13 0h-6.17l-3.727 23.987h6.389l1.002-6.395c.188-1.177.313-2.354.438-3.53l.094-.064 1.974 9.989h6.921ZM36.626 11.07l.94-5.917c1.754-.096 2.881.795 2.537 2.895-.22 1.558-1.378 3.054-3.07 3.054l-.407-.032Z"></path><path fill="#fff" d="M62.105 23.987 60.82 0h-7.798l-9.396 23.987h6.577l1.003-3.086h4.29v3.086h6.608Zm-9.24-8.176 1.723-5.567c.501-1.496.877-3.023 1.315-4.518h.063a217.638 217.638 0 0 0-.25 4.518l-.157 5.567h-2.694ZM81.22 23.987 89.707 0h-6.232l-2.913 9.671c-.563 1.877-.908 3.722-1.346 5.217h-.063c.031-1.75.125-3.467.094-5.217L79.122 0H73.64l-3.163 9.671c-.595 1.782-.877 3.531-1.347 5.313h-.063c.063-1.782.126-3.531.157-5.313L69.32 0h-6.295l1.535 23.987h6.2l2.85-9.735c.596-1.94.94-3.627 1.347-5.28h.063c-.031 1.653-.22 3.34-.188 5.28l.22 9.735h6.17ZM101.654 23.987 100.37 0h-7.798l-9.396 23.987h6.577l1.002-3.086h4.29v3.086h6.609Zm-9.239-8.176 1.723-5.567c.5-1.496.876-3.023 1.315-4.518h.063a218.333 218.333 0 0 0-.25 4.518l-.157 5.567h-2.694ZM110.761 23.987l1.597-10.18L120 0h-6.608l-3.351 7.412h-.063L108.913 0h-6.639l3.695 13.807-1.597 10.18h6.389ZM27.999 23.987 26.715 0h-7.799L9.521 23.987h6.577L17.1 20.9h4.29v3.086H28Zm-9.24-8.176 1.723-5.567c.502-1.496.877-3.023 1.316-4.518h.062a218.333 218.333 0 0 0-.25 4.518l-.157 5.567H18.76Z"></path><path fill="#fff" d="m45.051 23.987-3.195-9.99c2.694-1.017 4.197-3.372 4.604-6.012C47.431 1.655 43.673 0 38.13 0h-6.17l-3.727 23.987h6.389l1.002-6.395c.188-1.177.313-2.354.438-3.53l.094-.064 1.974 9.989h6.921ZM36.626 11.07l.94-5.917c1.754-.096 2.881.795 2.537 2.895-.22 1.558-1.378 3.054-3.07 3.054l-.407-.032Z"></path><path fill="#fff" d="M62.105 23.987 60.82 0h-7.798l-9.396 23.987h6.577l1.003-3.086h4.29v3.086h6.608Zm-9.24-8.176 1.723-5.567c.501-1.496.877-3.023 1.315-4.518h.063a217.638 217.638 0 0 0-.25 4.518l-.157 5.567h-2.694ZM81.22 23.987 89.707 0h-6.232l-2.913 9.671c-.563 1.877-.908 3.722-1.346 5.217h-.063c.031-1.75.125-3.467.094-5.217L79.122 0H73.64l-3.163 9.671c-.595 1.782-.877 3.531-1.347 5.313h-.063c.063-1.782.126-3.531.157-5.313L69.32 0h-6.295l1.535 23.987h6.2l2.85-9.735c.596-1.94.94-3.627 1.347-5.28h.063c-.031 1.653-.22 3.34-.188 5.28l.22 9.735h6.17ZM101.654 23.987 100.37 0h-7.798l-9.396 23.987h6.577l1.002-3.086h4.29v3.086h6.609Zm-9.239-8.176 1.723-5.567c.5-1.496.876-3.023 1.315-4.518h.063a218.333 218.333 0 0 0-.25 4.518l-.157 5.567h-2.694ZM110.761 23.987l1.597-10.18L120 0h-6.608l-3.351 7.412h-.063L108.913 0h-6.639l3.695 13.807-1.597 10.18h6.389ZM7.644 16.013H1.241L0 24h6.393l1.251-7.987ZM11.017 13.25l-9.451.674L3.729 0h12.433l-2.235 5.666H9.244l-.533 3.47h3.917l-1.611 4.114Z"></path></svg>